<?xml version="1.0" encoding="utf-8"?>
<!-- Generator: Adobe Illustrator 24.0.3, SVG Export Plug-In . SVG Version: 6.00 Build 0)  -->
<svg version="1.1" id="Слой_1" xmlns="http://www.w3.org/2000/svg" xmlns:xlink="http://www.w3.org/1999/xlink" x="0px" y="0px"
	 viewBox="0 0 347.8 329.8" style="enable-background:new 0 0 347.8 329.8;" xml:space="preserve">
<style type="text/css">
	.st0{fill:#4C85D3;}
</style>
<g transform="translate(0.000000,506.000000) scale(0.100000,-0.100000)">
	<path class="st0" d="M1839.1,4759.8c-36-36-43-48-38-67c19-62,73-76,125-31c43,36,54,67,35,102
		C1933.1,4818.8,1897.1,4817.8,1839.1,4759.8z"/>
	<path class="st0" d="M980.2,4209.7c-248-262.8-549.5-331.6-524.1-441.9c6.2-26.8,35.4-73,66-73c7,0,36,20,64,45c28,25,62,48,76,51
		c55,14,104-36,90-93c-5-18-71-91-182-203c-189-191-200-208-148-249c15-12,36-21,46-21c12,0,65,43,128,105c108,105,128,117,175,99
		c23-9,47-61,39-87c-3-12-37-54-75-93c-53-55-69-79-69-100c0-35,8-47,37-63c32-16,37-15,88,29c69,60,134,54,158-13
		c13-35-22-83-152-212c-141-139-153-163-111-205c40-40,64-28,195,100c111,109,126,120,159,120c80,0,103-80,40-141
		c-67-64-77-121-25-148c42-23,63-12,161,85c54,53,104,100,111,105c44,28,109-15,109-72c0-29-20-52-160-194c-137-137-160-165-160-191
		c0-37,29-67,66-66c20,0,67,41,223,196c175,174,201,196,230,196c39,0,81-38,81-74c0-27-76-120-179-219c-43-41-61-65-61-83
		c0-25,40-74,60-74c55.8,0,115.4,57.9,235,199c35.6,42,137.7,164.9,200.5,165.8c26.1,0.4,41.9-12.3,41.9-12.3
		c19.7-15.8,21.7-41.7,21.9-45.9c0.8-12.4-2.1-22.6-5.1-30.6c-11.9-31.5-31.9-42-56.1-68.9c-17.7-19.7-53.6-59.5-48.2-103.9
		c2.6-21,13.4-34.5,15.9-37.5c15.3-18.2,39.6-27.4,60.2-25c31.5,3.7,51.5,34.2,59,45.4c75.4,111.9,179.6,201.5,268.2,303.2
		c50.4,57.8,90.4,96.2,134.1,138.2c274,263.1,515,352.7,492.7,440.4c-5.3,20.7-25.7,43.2-48.6,52.6c-43.4,18-96-10.9-106-16.3
		c-23.5-12.9-24.4-20.8-56-37.6c-27.1-14.3-41.7-22-59.7-20.5c-32.1,2.7-66,34.1-69.8,66.7c-2.6,23,9.3,42.3,94,127
		c108,108,121,136,82,174c-41,41-66,34-142-40c-63-62-69-66-103-60c-43,7-71,37-71,79c0,27,30,61,230,262c246,247,254,259,207,303
		c-39,37-65,28-137-43c-78-77-113-89-155-53c-20,18-28,34-28,57c0,26,15,47,91,125c77,78,92,99,92,125c0,18-9,40-20,51
		c-35,35-65,26-140-45c-76-71-100-79-144-44c-19,15-26,30-26,55c0,28,11,46,60,99c33,36,60,74,60,85c0,28-43,70-72,70
		c-16,0-51-28-113-91c-103-104-141-127-183-107c-15,7-33,25-40,41c-11,23-11,32,4,62c9,20,24,41,33,48c51,40,114,117,114,141
		c0,37-30,66-66,66c-26,0-58-27-217-185c-163-162-191-185-218-185c-70,0-92,68-47,144c21,35,24,48,16,69c-11,27-39,47-66,47
		c-9,0-61-42-114-94c-54-52-109-98-122-101c-58-14-107,36-94,95c3,15,26,46,50,70c34,34,45,52,45,76c0,17.2-5.5,32-15.2,43
		c0,0-16.6,18.5-50.8,21C1340.8,4730,1164.3,4404.7,980.2,4209.7z M2160.1,4018.8c13-33,6-180-9-200c-17-22-20-71-5-76
		c6-2,13-135,17-361l6-357h49h48v-60v-60l-422,2c-326,2-422,6-426,16c-3,9,28,12,132,12h135l3,43l3,42l53,3l52,3v230v229h-189h-190
		l-3-37l-3-38l-107-3l-108-3v40c0,36-3,40-30,46l-30,7v84v84h330h330v35c0,22,6,38,15,41c9,4,15,19,15,35c0,17-6,32-15,35
		c-8,4-15,17-15,30v24h-220h-220v60v60h220h220v25v25h179C2129.1,4034.8,2155.1,4032.8,2160.1,4018.8z M1274.1,3341.8
		c3-23,0-27-21-27c-29,0-43,26-26,47C1245.1,3382.8,1271.1,3372.8,1274.1,3341.8z M1384.1,3341.8c3-23,0-27-23-27c-30,0-43,24-25,46
		C1355.1,3382.8,1381.1,3373.8,1384.1,3341.8z M1275.1,3250.8c16-20,3-46-24-46c-13,0-26,7-29,16c-7,19,10,44,29,44
		C1258.1,3264.8,1269.1,3258.8,1275.1,3250.8z M1381.1,3234.8c0-18-6-26-23-28c-27-4-40,22-22,44
		C1355.1,3272.8,1381.1,3263.8,1381.1,3234.8z M1274.1,3121.8c3-23,0-27-21-27c-29,0-43,26-26,47
		C1245.1,3162.8,1271.1,3152.8,1274.1,3121.8z M1384.1,3121.8c3-23,0-27-23-27c-30,0-43,24-25,46
		C1355.1,3162.8,1381.1,3153.8,1384.1,3121.8z"/>
	<path class="st0" d="M1826.1,3924.8v-80h150h150v80v80h-150h-150V3924.8z"/>
	<path class="st0" d="M1396.1,3924.8c0-19,7-20,200-20s200,1,200,20s-7,20-200,20S1396.1,3943.8,1396.1,3924.8z"/>
	<path class="st0" d="M1862.1,3789.8c-14-38,2-45,114-45c112,0,128,7,114,45c-5,12-27,15-114,15
		C1889.1,3804.8,1867.1,3801.8,1862.1,3789.8z"/>
	<path class="st0" d="M1826.1,3364.8v-340h110h110v135c0,113,2,135,15,135s15-22,15-135v-135h25h25v340v340h-150h-150V3364.8z"/>
	<path class="st0" d="M1176.1,3574.8v-50h310h310v50v50h-310h-310V3574.8z"/>
	<path class="st0" d="M1226.1,3464.8c0-18,7-20,80-20s80,2,80,20s-7,20-80,20S1226.1,3482.8,1226.1,3464.8z"/>
	<path class="st0" d="M1726.1,2959.8v-25h255h255v25v25h-255h-255V2959.8z"/>
	<path class="st0" d="M961.1,4615.8c-11-5-41-31-67-59c-56-60-64-104-25-140c38-36,80-29,134,21c77,71,88,132,29,168
		C998.1,4626.8,991.1,4627.8,961.1,4615.8z"/>
	<path class="st0" d="M2863.1,3714.8c-19-16-40-44-47-61c-11-27-11-33,7-57c13-18,31-28,52-30c27-3,40,4,77,41c49,50,57,84,24,117
		C2947.1,3753.8,2903.1,3749.8,2863.1,3714.8z"/>
	<path class="st0" d="M521.1,3034.8c-36-37-38-85-6-112c32-26,55-23,95,13c42,36,51,60,35,91s-28,38-65,38
		C559.1,3064.8,541.1,3055.8,521.1,3034.8z"/>
	<path class="st0" d="M885.1,2565.8c-55-55-61-80-24-116c36-37,61-31,116,24c55,55,61,80,24,116
		C965.1,2626.8,940.1,2620.8,885.1,2565.8z"/>
	<path class="st0" d="M2406.1,2528.8c-37-36-70-76-72-89c-7-37,16-80,51-95c43-18,77-2,145,70c47,49,56,64,56,95c0,47-36,85-81,85
		C2480.1,2594.8,2460.1,2581.8,2406.1,2528.8z"/>
</g>
</svg>
